<svg id="Layer_1" data-name="Layer 1" xmlns="http://www.w3.org/2000/svg" viewBox="0 0 96.45 14.53"><defs><style>.cls-1{fill:#231f20;}</style></defs><path class="cls-1" d="M7.14,6.15,5.12,6V7.31a1.63,1.63,0,0,0,.28,1,1.2,1.2,0,0,0,1,.36,3,3,0,0,0,.53,0,8.72,8.72,0,0,0,0,.9c0,.14,0,.47,0,1-.36.06-.65.1-.89.12s-.55,0-.94,0a2.49,2.49,0,0,1-2-.67A2.83,2.83,0,0,1,2.5,8.11l0-2c-.38,0-.77,0-1.18.07V4a1.53,1.53,0,0,0,1.06-.4,1.57,1.57,0,0,0,.51-.95H6.18A5.61,5.61,0,0,1,4.82,4H7.14Z"/><path class="cls-1" d="M15.55,8.56a1.34,1.34,0,0,0,.09.58.63.63,0,0,0,.39.24L16,10.51l-.67.08c-.18,0-.43,0-.75,0a1.6,1.6,0,0,1-1.36-.46A1.92,1.92,0,0,1,12.86,9v-.3a2.93,2.93,0,0,1-1,1.46,2.85,2.85,0,0,1-1.7.48,2.89,2.89,0,0,1-1.81-.48,1.71,1.71,0,0,1-.6-1.42,1.56,1.56,0,0,1,.51-1.23,3.27,3.27,0,0,1,1.6-.61A16.49,16.49,0,0,0,8,5.74,4.88,4.88,0,0,1,9.67,4.36a4.78,4.78,0,0,1,2.24-.48,4,4,0,0,1,2.74.8,3.11,3.11,0,0,1,.9,2.45ZM11.08,6.2a2.44,2.44,0,0,0-.84.61A15.19,15.19,0,0,1,12,6.73a1.33,1.33,0,0,0,.63-.11.32.32,0,0,0,.18-.28.28.28,0,0,0-.18-.24A1,1,0,0,0,12.16,6,2.67,2.67,0,0,0,11.08,6.2Zm1,2.2a1.5,1.5,0,0,0,.74-.68V7.41a2.41,2.41,0,0,1-.64.22l-.84.15L11,7.85c-.45.09-.67.24-.67.46s.21.35.62.35A2.84,2.84,0,0,0,12.12,8.4Z"/><path class="cls-1" d="M23.39,4.37a3.16,3.16,0,0,1,1,1.28,4.24,4.24,0,0,1,.35,1.7A4,4,0,0,1,24.37,9a3,3,0,0,1-1,1.21,2.36,2.36,0,0,1-1.41.44,3.09,3.09,0,0,1-1.58-.39,2.36,2.36,0,0,1-1-1.23l-.35,1.5h-2.3c.05-1.5.07-3.06.07-4.66s0-3.18-.07-4.67h2.71l0,1.47q-.06,1.56-.06,2.79a2.36,2.36,0,0,1,1-1.21A3.15,3.15,0,0,1,22,3.88,2.25,2.25,0,0,1,23.39,4.37Zm-1.75,3.9a1.4,1.4,0,0,0,.34-1,1.16,1.16,0,0,0-.37-.9,1.29,1.29,0,0,0-.9-.34,1.39,1.39,0,0,0-.58.13,1.18,1.18,0,0,0-.51.41,1.07,1.07,0,0,0-.22.7,1.39,1.39,0,0,0,.34,1.06,1.39,1.39,0,0,0,1,.32A1.12,1.12,0,0,0,21.64,8.27Z"/><path class="cls-1" d="M28.48,8c0,1.19,0,2.06,0,2.59H25.68V9.2c0-1.49,0-2.64,0-3.45s0-1.85,0-3.26V1.19h2.83q0,1.71,0,2.79c0,.8,0,1.39,0,1.77S28.48,7,28.48,8Z"/><path class="cls-1" d="M35.82,7.55H31.9a1.48,1.48,0,0,0,.48.86,1.57,1.57,0,0,0,1.07.33,2.19,2.19,0,0,0,.95-.2A1.7,1.7,0,0,0,35.11,8a20.8,20.8,0,0,0,2.13.85,2.74,2.74,0,0,1-1.35,1.34,5.65,5.65,0,0,1-2.55.49,4.18,4.18,0,0,1-3-.94,3.25,3.25,0,0,1-1-2.48,3.2,3.2,0,0,1,1-2.43,4.2,4.2,0,0,1,3-.94,5.15,5.15,0,0,1,2.13.41,3.18,3.18,0,0,1,1.38,1.13,3,3,0,0,1,.48,1.67,2.61,2.61,0,0,1,0,.46ZM32.53,5.92a1.19,1.19,0,0,0-.54.63h2.83a1.27,1.27,0,0,0-.47-.62,1.35,1.35,0,0,0-.84-.24A1.89,1.89,0,0,0,32.53,5.92Z"/><path class="cls-1" d="M45.86,8.56a1.18,1.18,0,0,0,.1.58.57.57,0,0,0,.38.24l-.05,1.13-.66.08c-.19,0-.44,0-.75,0a1.61,1.61,0,0,1-1.37-.46A1.92,1.92,0,0,1,43.17,9v-.3a2.93,2.93,0,0,1-1,1.46,2.85,2.85,0,0,1-1.7.48,2.89,2.89,0,0,1-1.81-.48,1.71,1.71,0,0,1-.6-1.42,1.56,1.56,0,0,1,.51-1.23,3.27,3.27,0,0,1,1.6-.61,17.36,17.36,0,0,0-1.82-1.13A4.85,4.85,0,0,1,40,4.36a4.78,4.78,0,0,1,2.24-.48,4,4,0,0,1,2.75.8,3.14,3.14,0,0,1,.89,2.45ZM41.4,6.2a2.27,2.27,0,0,0-.84.61,15.19,15.19,0,0,1,1.8-.08A1.31,1.31,0,0,0,43,6.62a.32.32,0,0,0,.18-.28A.28.28,0,0,0,43,6.1a1,1,0,0,0-.5-.11A2.6,2.6,0,0,0,41.4,6.2Zm1,2.2a1.5,1.5,0,0,0,.74-.68V7.41a2.47,2.47,0,0,1-.63.22l-.84.15-.44.07c-.44.09-.67.24-.67.46s.21.35.63.35A2.82,2.82,0,0,0,42.43,8.4Z"/><path class="cls-1" d="M54.36,7.27c0,1.17,0,2.27.08,3.28l-1.21,0-1.21,0-.35-1.76a2.68,2.68,0,0,1-.87,1.42,2.11,2.11,0,0,1-1.36.46,2.39,2.39,0,0,1-1.25-.31,2.13,2.13,0,0,1-.8-.86,2.69,2.69,0,0,1-.27-1.21V6.56c0-1.07,0-1.92-.06-2.56h2.7c0,1.18-.07,2.34-.07,3.49a1.21,1.21,0,0,0,.26.84.81.81,0,0,0,.65.32.82.82,0,0,0,.65-.33,1.63,1.63,0,0,0,.35-.91V7.13c0-.62,0-1,0-1.29,0-.55,0-1.17,0-1.84h2.87C54.38,5,54.36,6.1,54.36,7.27Z"/><path class="cls-1" d="M64.45,4.33a2.9,2.9,0,0,1,1,1.2,4,4,0,0,1,.35,1.68,4.19,4.19,0,0,1-.35,1.69,3.19,3.19,0,0,1-1,1.29,2.3,2.3,0,0,1-1.43.48,3.08,3.08,0,0,1-1.6-.39,2.29,2.29,0,0,1-1-1.2c0,.45,0,1.19,0,2.19s0,1.67,0,2.07H57.8c.05-1.49.07-3.05.07-4.67s0-3.18-.07-4.67h2.3l.35,1.5a2.41,2.41,0,0,1,1-1.23A3.09,3.09,0,0,1,63,3.88,2.37,2.37,0,0,1,64.45,4.33ZM62.67,8.17A1.17,1.17,0,0,0,63,7.28a1.49,1.49,0,0,0-.33-1,1.18,1.18,0,0,0-.92-.38,1.34,1.34,0,0,0-1,.32,1.38,1.38,0,0,0-.34,1.06,1.09,1.09,0,0,0,.22.7,1.26,1.26,0,0,0,.51.41,1.54,1.54,0,0,0,.58.12A1.29,1.29,0,0,0,62.67,8.17Z"/><path class="cls-1" d="M73.9,7.27c0,1.17,0,2.27.09,3.28l-1.21,0-1.22,0-.34-1.76a2.74,2.74,0,0,1-.87,1.42,2.14,2.14,0,0,1-1.37.46,2.35,2.35,0,0,1-1.24-.31,2.07,2.07,0,0,1-.8-.86,2.69,2.69,0,0,1-.27-1.21V6.56c0-1.07,0-1.92-.06-2.56h2.7c0,1.18-.07,2.34-.07,3.49a1.26,1.26,0,0,0,.25.84.82.82,0,0,0,1.31,0,1.63,1.63,0,0,0,.34-.91V7.13q0-.93,0-1.29c0-.55,0-1.17,0-1.84H74Q73.9,5.52,73.9,7.27Z"/><path class="cls-1" d="M77.76,8c0,1.19,0,2.06,0,2.59H75V9.2c0-1.49,0-2.64,0-3.45s0-1.85,0-3.26V1.19h2.83c0,1.14,0,2.07,0,2.79s0,1.39,0,1.77S77.76,7,77.76,8Z"/><path class="cls-1" d="M80.57,10.39a7.07,7.07,0,0,1-1.95-.86l1.26-1.71a4.42,4.42,0,0,0,1.33.62,5.37,5.37,0,0,0,1.34.22,1.91,1.91,0,0,0,.84-.15.43.43,0,0,0,.29-.39.34.34,0,0,0-.14-.3.68.68,0,0,0-.4-.11h-.35l-.32,0c-.42,0-.84.07-1.28.07a3.42,3.42,0,0,1-1.74-.4,1.43,1.43,0,0,1-.66-1.32,1.82,1.82,0,0,1,1-1.64,6,6,0,0,1,2.93-.58,7.17,7.17,0,0,1,1.92.27A5.4,5.4,0,0,1,86.34,5L85,6.35a5.8,5.8,0,0,0-1.27-.51,4.93,4.93,0,0,0-1.2-.15,1.47,1.47,0,0,0-.72.17q-.3.16-.3.39a.32.32,0,0,0,.13.26.54.54,0,0,0,.33.1l.56,0c.59,0,1-.06,1.31-.06a3.69,3.69,0,0,1,1.93.42,1.4,1.4,0,0,1,.69,1.28,2,2,0,0,1-1,1.88,5.56,5.56,0,0,1-2.78.58A7.67,7.67,0,0,1,80.57,10.39Z"/><path class="cls-1" d="M93.59,7.55H89.68a1.48,1.48,0,0,0,.48.86,1.57,1.57,0,0,0,1.07.33,2.19,2.19,0,0,0,1-.2A1.77,1.77,0,0,0,92.89,8,20.8,20.8,0,0,0,95,8.84a2.83,2.83,0,0,1-1.35,1.34,5.65,5.65,0,0,1-2.55.49,4.22,4.22,0,0,1-3-.94,3.28,3.28,0,0,1-1-2.48,3.2,3.2,0,0,1,1-2.43,4.19,4.19,0,0,1,3-.94,5.15,5.15,0,0,1,2.13.41,3.18,3.18,0,0,1,1.38,1.13,3,3,0,0,1,.48,1.67,2.61,2.61,0,0,1,0,.46ZM90.31,5.92a1.19,1.19,0,0,0-.54.63H92.6a1.27,1.27,0,0,0-.47-.62,1.39,1.39,0,0,0-.84-.24A1.89,1.89,0,0,0,90.31,5.92Z"/></svg>